HIERARCHY
ROOT newVegas:Hips
{
	OFFSET 0.000000 96.479958 0.000000
	CHANNELS 6 Xposition Yposition Zposition Xrotation Yrotation Zrotation
	JOINT newVegas:Pelvis
	{
		OFFSET 0.000000 0.000000 0.000000
		CHANNELS 3 Xrotation Yrotation Zrotation
		JOINT newVegas:LeftUpLeg
		{
			OFFSET 18.735201 -5.666702 -4.541200
			CHANNELS 3 Xrotation Yrotation Zrotation
			JOINT newVegas:LeftLeg
			{
				OFFSET -0.021200 -31.938179 0.493100
				CHANNELS 3 Xrotation Yrotation Zrotation
				JOINT newVegas:LeftFoot
				{
					OFFSET 0.021200 -31.938179 -4.336299
					CHANNELS 3 Xrotation Yrotation Zrotation
					JOINT newVegas:LeftToeBase
					{
						OFFSET 0.943001 -26.722000 15.023500
						CHANNELS 3 Xrotation Yrotation Zrotation
						End Site
						{
							OFFSET 0.000000 30.670183 0.000000
						}
					}
				}
				JOINT newVegas:Left_PantLeg
				{
					OFFSET 0.663870 -9.044666 -1.108900
					CHANNELS 3 Xrotation Yrotation Zrotation
					End Site
					{
						OFFSET 1.415995 20.635357 0.000000
					}
				}
			}
		}
		JOINT newVegas:RightUpLeg
		{
			OFFSET -18.735201 -5.666702 -4.541200
			CHANNELS 3 Xrotation Yrotation Zrotation
			JOINT newVegas:RightLeg
			{
				OFFSET 0.018946 -31.938133 0.493100
				CHANNELS 3 Xrotation Yrotation Zrotation
				JOINT newVegas:RightFoot
				{
					OFFSET -0.018946 -31.938126 -4.336299
					CHANNELS 3 Xrotation Yrotation Zrotation
					JOINT newVegas:RightToeBase
					{
						OFFSET -0.943001 -26.722004 15.023500
						CHANNELS 3 Xrotation Yrotation Zrotation
						End Site
						{
							OFFSET 0.000000 30.670187 0.000000
						}
					}
				}
				JOINT newVegas:Right_PantLeg
				{
					OFFSET -0.661674 -9.044716 -1.108900
					CHANNELS 3 Xrotation Yrotation Zrotation
					End Site
					{
						OFFSET -1.415958 20.635269 0.000000
					}
				}
			}
		}
	}
	JOINT newVegas:Spine
	{
		OFFSET 0.000000 10.199997 -0.299500
		CHANNELS 3 Xrotation Yrotation Zrotation
		JOINT newVegas:Spine1
		{
			OFFSET 0.000000 11.900002 -1.516600
			CHANNELS 3 Xrotation Yrotation Zrotation
			JOINT newVegas:Spine2
			{
				OFFSET 0.000000 13.600006 -2.842500
				CHANNELS 3 Xrotation Yrotation Zrotation
				JOINT newVegas:Neck
				{
					OFFSET 0.000000 9.624100 -2.890100
					CHANNELS 3 Xrotation Yrotation Zrotation
					JOINT newVegas:Head
					{
						OFFSET 0.000000 14.068802 -1.351900
						CHANNELS 3 Xrotation Yrotation Zrotation
						JOINT newVegas:Hair_Back
						{
							OFFSET 0.000000 3.231903 -17.524799
							CHANNELS 3 Xrotation Yrotation Zrotation
							End Site
							{
								OFFSET 0.000000 19.849884 0.000000
							}
						}
						JOINT newVegas:Hair_Front
						{
							OFFSET 0.000000 31.260406 4.573800
							CHANNELS 3 Xrotation Yrotation Zrotation
							JOINT newVegas:Hair_Front1
							{
								OFFSET 0.000000 2.284103 11.993300
								CHANNELS 3 Xrotation Yrotation Zrotation
								JOINT newVegas:Hair_Front2
								{
									OFFSET 0.000000 2.284103 11.993300
									CHANNELS 3 Xrotation Yrotation Zrotation
									End Site
									{
										OFFSET 0.000000 12.208862 0.000000
									}
								}
							}
						}
						JOINT newVegas:Jowel
						{
							OFFSET 0.000000 -7.458206 6.864100
							CHANNELS 3 Xrotation Yrotation Zrotation
							End Site
							{
								OFFSET 0.000000 19.849884 0.000000
							}
						}
					}
				}
				JOINT newVegas:LeftShoulder
				{
					OFFSET 15.263000 10.923401 -0.547700
					CHANNELS 3 Xrotation Yrotation Zrotation
					JOINT newVegas:LeftArm
					{
						OFFSET 25.438599 -2.830597 -13.032500
						CHANNELS 3 Xrotation Yrotation Zrotation
						JOINT newVegas:LeftForeArm
						{
							OFFSET 29.960503 0.000000 0.000000
							CHANNELS 3 Xrotation Yrotation Zrotation
							JOINT newVegas:LeftHand
							{
								OFFSET 27.849251 0.000000 0.000000
								CHANNELS 3 Xrotation Yrotation Zrotation
								JOINT newVegas:LeftHandThumb1
								{
									OFFSET 4.487587 -3.305161 6.305391
									CHANNELS 3 Xrotation Yrotation Zrotation
									JOINT newVegas:LeftHandThumb2
									{
										OFFSET 5.480453 -3.164139 3.164143
										CHANNELS 3 Xrotation Yrotation Zrotation
										JOINT newVegas:LeftHandThumb3
										{
											OFFSET 5.159721 -2.978973 2.978967
											CHANNELS 3 Xrotation Yrotation Zrotation
											End Site
											{
												OFFSET 2.494507 5.926697 1.738678
											}
										}
									}
								}
								JOINT newVegas:LeftHandIndex1
								{
									OFFSET 18.578728 -0.527832 5.208049
									CHANNELS 3 Xrotation Yrotation Zrotation
									JOINT newVegas:LeftHandIndex2
									{
										OFFSET 3.192009 0.000000 0.000000
										CHANNELS 3 Xrotation Yrotation Zrotation
										JOINT newVegas:LeftHandIndex3
										{
											OFFSET 3.835129 0.000000 0.000000
											CHANNELS 3 Xrotation Yrotation Zrotation
											End Site
											{
												OFFSET -0.034599 3.816971 0.371180
											}
										}
									}
								}
								JOINT newVegas:LeftHandMiddle1
								{
									OFFSET 18.476105 0.000000 0.000000
									CHANNELS 3 Xrotation Yrotation Zrotation
									JOINT newVegas:LeftHandMiddle2
									{
										OFFSET 3.324875 0.000000 0.000000
										CHANNELS 3 Xrotation Yrotation Zrotation
										JOINT newVegas:LeftHandMiddle3
										{
											OFFSET 4.596550 0.000000 0.000000
											CHANNELS 3 Xrotation Yrotation Zrotation
											End Site
											{
												OFFSET 0.057701 4.578827 0.399218
											}
										}
									}
								}
								JOINT newVegas:LeftHandRing1
								{
									OFFSET 17.732719 0.121887 -4.201567
									CHANNELS 3 Xrotation Yrotation Zrotation
									JOINT newVegas:LeftHandRing2
									{
										OFFSET 2.733170 0.000000 0.000000
										CHANNELS 3 Xrotation Yrotation Zrotation
										JOINT newVegas:LeftHandRing3
										{
											OFFSET 3.178268 0.000000 0.000000
											CHANNELS 3 Xrotation Yrotation Zrotation
											End Site
											{
												OFFSET 0.119102 3.170624 0.185394
											}
										}
									}
								}
								JOINT newVegas:LeftHandPinky1
								{
									OFFSET 15.989624 -0.606689 -7.535461
									CHANNELS 3 Xrotation Yrotation Zrotation
									JOINT newVegas:LeftHandPinky2
									{
										OFFSET 2.538986 0.000000 0.000000
										CHANNELS 3 Xrotation Yrotation Zrotation
										JOINT newVegas:LeftHandPinky3
										{
											OFFSET 2.593102 0.000000 0.000000
											CHANNELS 3 Xrotation Yrotation Zrotation
											End Site
											{
												OFFSET -0.150902 2.584198 0.152708
											}
										}
									}
								}
							}
							JOINT newVegas:Left_Sleeve
							{
								OFFSET 0.267448 -0.649796 0.577675
								CHANNELS 3 Xrotation Yrotation Zrotation
								End Site
								{
									OFFSET 0.000000 15.991241 0.000000
								}
							}
							JOINT newVegas:Left_CapeC
							{
								OFFSET 15.715958 -8.608795 -6.935905
								CHANNELS 3 Xrotation Yrotation Zrotation
								JOINT newVegas:Left_CapeC1
								{
									OFFSET 0.000000 -8.688499 0.000000
									CHANNELS 3 Xrotation Yrotation Zrotation
									End Site
									{
										OFFSET 0.000000 8.688499 0.000000
									}
								}
							}
						}
						JOINT newVegas:Left_CapeB
						{
							OFFSET 26.118385 -8.608795 -7.079235
							CHANNELS 3 Xrotation Yrotation Zrotation
							JOINT newVegas:Left_CapeB1
							{
								OFFSET 0.000000 -8.688499 0.000000
								CHANNELS 3 Xrotation Yrotation Zrotation
								End Site
								{
									OFFSET 0.000000 8.688499 0.000000
								}
							}
						}
						JOINT newVegas:Left_CapeA
						{
							OFFSET 5.115639 -8.608795 -10.395809
							CHANNELS 3 Xrotation Yrotation Zrotation
							JOINT newVegas:Left_CapeA1
							{
								OFFSET 0.000000 -8.688499 0.000000
								CHANNELS 3 Xrotation Yrotation Zrotation
								End Site
								{
									OFFSET 0.000000 8.688499 0.000000
								}
							}
						}
					}
				}
				JOINT newVegas:RightShoulder
				{
					OFFSET -15.263000 10.923401 -0.547700
					CHANNELS 3 Xrotation Yrotation Zrotation
					JOINT newVegas:RightArm
					{
						OFFSET -25.438599 -2.830597 -13.032500
						CHANNELS 3 Xrotation Yrotation Zrotation
						JOINT newVegas:RightForeArm
						{
							OFFSET -29.960503 0.000000 0.000000
							CHANNELS 3 Xrotation Yrotation Zrotation
							JOINT newVegas:RightHand
							{
								OFFSET -27.849251 0.000000 0.000000
								CHANNELS 3 Xrotation Yrotation Zrotation
								JOINT newVegas:RightHandThumb1
								{
									OFFSET -4.487587 -3.305161 6.305391
									CHANNELS 3 Xrotation Yrotation Zrotation
									JOINT newVegas:RightHandThumb2
									{
										OFFSET -5.480453 -3.164139 3.164143
										CHANNELS 3 Xrotation Yrotation Zrotation
										JOINT newVegas:RightHandThumb3
										{
											OFFSET -5.159721 -2.978973 2.978967
											CHANNELS 3 Xrotation Yrotation Zrotation
											End Site
											{
												OFFSET -2.494507 5.926697 1.738678
											}
										}
									}
								}
								JOINT newVegas:RightHandIndex1
								{
									OFFSET -18.578728 -0.527832 5.208049
									CHANNELS 3 Xrotation Yrotation Zrotation
									JOINT newVegas:RightHandIndex2
									{
										OFFSET -3.192009 0.000000 0.000000
										CHANNELS 3 Xrotation Yrotation Zrotation
										JOINT newVegas:RightHandIndex3
										{
											OFFSET -3.835129 0.000000 0.000000
											CHANNELS 3 Xrotation Yrotation Zrotation
											End Site
											{
												OFFSET 0.034599 3.816971 0.371180
											}
										}
									}
								}
								JOINT newVegas:RightHandMiddle1
								{
									OFFSET -18.476105 0.000000 0.000000
									CHANNELS 3 Xrotation Yrotation Zrotation
									JOINT newVegas:RightHandMiddle2
									{
										OFFSET -3.324875 0.000000 0.000000
										CHANNELS 3 Xrotation Yrotation Zrotation
										JOINT newVegas:RightHandMiddle3
										{
											OFFSET -4.596550 0.000000 0.000000
											CHANNELS 3 Xrotation Yrotation Zrotation
											End Site
											{
												OFFSET -0.057701 4.578827 0.399218
											}
										}
									}
								}
								JOINT newVegas:RightHandRing1
								{
									OFFSET -17.732719 0.121887 -4.201567
									CHANNELS 3 Xrotation Yrotation Zrotation
									JOINT newVegas:RightHandRing2
									{
										OFFSET -2.733170 0.000000 0.000000
										CHANNELS 3 Xrotation Yrotation Zrotation
										JOINT newVegas:RightHandRing3
										{
											OFFSET -3.178268 0.000000 0.000000
											CHANNELS 3 Xrotation Yrotation Zrotation
											End Site
											{
												OFFSET -0.119102 3.170624 0.185394
											}
										}
									}
								}
								JOINT newVegas:RightHandPinky1
								{
									OFFSET -15.989624 -0.606689 -7.535461
									CHANNELS 3 Xrotation Yrotation Zrotation
									JOINT newVegas:RightHandPinky2
									{
										OFFSET -2.538986 0.000000 0.000000
										CHANNELS 3 Xrotation Yrotation Zrotation
										JOINT newVegas:RightHandPinky3
										{
											OFFSET -2.593102 0.000000 0.000000
											CHANNELS 3 Xrotation Yrotation Zrotation
											End Site
											{
												OFFSET 0.150902 2.584198 0.152708
											}
										}
									}
								}
							}
							JOINT newVegas:Right_CapeC
							{
								OFFSET -15.715958 -8.608795 -6.935905
								CHANNELS 3 Xrotation Yrotation Zrotation
								JOINT newVegas:Right_CapeC1
								{
									OFFSET 0.000000 -8.688499 0.000000
									CHANNELS 3 Xrotation Yrotation Zrotation
									End Site
									{
										OFFSET 0.000000 8.688499 0.000000
									}
								}
							}
							JOINT newVegas:Right_Sleeve
							{
								OFFSET -0.267448 -0.649994 0.577675
								CHANNELS 3 Xrotation Yrotation Zrotation
								End Site
								{
									OFFSET 0.000000 15.991302 0.000000
								}
							}
						}
						JOINT newVegas:Right_CapeA
						{
							OFFSET -5.115540 -8.608795 -10.395824
							CHANNELS 3 Xrotation Yrotation Zrotation
							JOINT newVegas:Right_CapeA1
							{
								OFFSET 0.000000 -8.688499 0.000000
								CHANNELS 3 Xrotation Yrotation Zrotation
								End Site
								{
									OFFSET 0.000000 8.688499 0.000000
								}
							}
						}
						JOINT newVegas:Right_CapeB
						{
							OFFSET -26.118187 -8.608795 -7.079266
							CHANNELS 3 Xrotation Yrotation Zrotation
							JOINT newVegas:Right_CapeB1
							{
								OFFSET 0.000000 -8.688499 0.000000
								CHANNELS 3 Xrotation Yrotation Zrotation
								End Site
								{
									OFFSET 0.000000 8.688499 0.000000
								}
							}
						}
					}
				}
				JOINT newVegas:Left_Collar
				{
					OFFSET 18.625099 8.655502 8.828100
					CHANNELS 3 Xrotation Yrotation Zrotation
					JOINT newVegas:Left_Collar1
					{
						OFFSET 14.783401 10.540405 -1.259500
						CHANNELS 3 Xrotation Yrotation Zrotation
						End Site
						{
							OFFSET 0.000000 18.199875 0.000000
						}
					}
				}
				JOINT newVegas:Collar_Back
				{
					OFFSET 0.000000 15.630707 -20.132601
					CHANNELS 3 Xrotation Yrotation Zrotation
					End Site
					{
						OFFSET 0.000000 22.523010 0.000000
					}
				}
				JOINT newVegas:Left_Peck
				{
					OFFSET 17.239599 -5.132599 25.482599
					CHANNELS 3 Xrotation Yrotation Zrotation
					End Site
					{
						OFFSET 0.000000 22.523010 0.000000
					}
				}
				JOINT newVegas:Right_Peck
				{
					OFFSET -17.239599 -5.132202 25.482599
					CHANNELS 3 Xrotation Yrotation Zrotation
					End Site
					{
						OFFSET 0.000000 22.523010 0.000000
					}
				}
				JOINT newVegas:Right_Collar
				{
					OFFSET -18.625099 8.655792 8.828100
					CHANNELS 3 Xrotation Yrotation Zrotation
					JOINT newVegas:Right_Collar1
					{
						OFFSET -14.783401 10.539993 -1.259500
						CHANNELS 3 Xrotation Yrotation Zrotation
						End Site
						{
							OFFSET 0.000000 18.199631 0.000000
						}
					}
				}
			}
		}
		JOINT newVegas:Belly
		{
			OFFSET 0.000000 -6.540398 9.014299
			CHANNELS 3 Xrotation Yrotation Zrotation
			End Site
			{
				OFFSET 0.000000 11.566666 0.000000
			}
		}
	}
	JOINT newVegas:ElvisFacialAnim_Joint
	{
		OFFSET 1.000000 -95.330101 -8.825800
		CHANNELS 3 Xrotation Yrotation Zrotation
		End Site
		{
			OFFSET 0.000000 35.315800 0.000000
		}
	}
}
MOTION
Frames: 4
Frame Time: 0.033333
-0.478400 95.916306 4.289738 6.373079 -6.442739 0.068967 0.000000 0.000001 -0.000000 -12.005668 10.823414 2.170310 7.081888 -0.027994 -0.169983 -1.600792 6.137836 -0.294233 -0.000000 -0.000001 0.000000 -0.000000 -0.000000 0.000000 -11.425642 0.473584 1.459359 2.109784 0.006787 0.055430 3.018715 2.824638 -0.822477 0.000000 -0.000000 0.000000 0.000000 0.000000 -0.000000 -0.115873 0.605776 0.500830 -0.237324 1.209375 1.020381 -0.237323 1.209375 1.020381 -1.090711 -0.000087 -0.000648 -1.090706 -0.000086 -0.000648 0.000000 -0.000000 -0.000000 -1.090710 -0.000081 -0.000650 -1.090642 -0.000091 -0.000648 -0.000000 0.000000 0.000000 0.000000 -0.000000 -0.000000 -1.040628 0.066381 -7.313138 7.335315 -32.056803 -69.656598 0.187031 -19.283444 -0.010506 -20.720721 9.880088 7.493344 -3.585667 6.501869 9.429880 2.607172 6.629806 1.555743 0.000001 -0.000002 -0.000003 0.018220 -0.626958 -18.273830 0.140784 0.905693 -26.473735 0.000002 -0.000001 -0.000001 -0.395176 -0.197384 -22.733916 -0.317521 -1.177664 -20.974690 -0.000002 0.000000 -0.000001 -2.603421 2.237683 -30.763852 -0.558395 -2.799657 -27.779846 0.000000 0.000001 -0.000003 -3.206979 3.773984 -25.957084 -1.466417 -7.041428 -38.543598 0.000002 -0.000003 -0.000001 0.000002 -0.000001 0.000000 0.000002 -0.000001 0.000000 0.000001 -0.000000 0.000000 -0.000002 0.000000 0.000001 -0.000002 0.000000 0.000001 -0.000002 0.000000 0.000001 -0.000004 -0.000000 0.000000 -1.310972 0.743199 9.275662 11.989204 31.139874 62.510390 0.166213 19.893778 0.011994 -1.874924 -6.080882 -2.853801 -4.933598 -3.839409 -10.210296 2.321130 -6.714517 -2.170923 -0.000001 0.000001 0.000001 -0.707344 -1.817307 16.398840 0.236660 -1.390793 24.642426 -0.000002 0.000001 -0.000000 -1.004776 -1.535073 26.677186 -0.334958 0.990837 24.831866 0.000002 -0.000002 -0.000003 -1.008054 -2.153148 34.767784 -0.909676 3.719354 31.537596 0.000000 -0.000001 0.000001 -0.351655 -5.096493 35.329512 -3.150349 10.093698 46.957014 0.000000 0.000001 0.000001 -0.000001 0.000001 0.000000 -0.000000 -0.000000 0.000000 -0.000001 0.000001 0.000000 -0.000002 0.000001 0.000000 -0.000002 0.000000 0.000001 -0.000002 0.000001 0.000000 -0.000002 -0.000000 0.000001 -0.000000 0.000000 -0.000000 -0.000000 0.000000 -0.000000 -0.000000 0.000000 -0.000000 -0.000000 0.000000 -0.000000 -0.000000 0.000000 -0.000000 -0.000000 0.000000 -0.000000 -0.000000 0.000000 -0.000000 0.000000 -0.000000 0.000000 0.000000 0.000001 -0.000000 
-0.473954 95.916847 4.291112 6.369399 -6.427552 0.068390 0.000000 0.000000 -0.000000 -12.012248 10.821037 2.169111 7.087803 -0.027223 -0.170152 -1.596875 6.100835 -0.271061 0.000000 -0.000001 0.000000 0.000000 0.000001 0.000001 -11.424614 0.475751 1.457451 2.122355 0.006695 0.055960 3.014033 2.801798 -0.831198 -0.000000 0.000000 0.000000 -0.000000 -0.000000 0.000000 -0.116711 0.607625 0.502532 -0.239028 1.213088 1.023829 -0.239029 1.213087 1.023828 -1.092230 0.000793 -0.001286 -1.092228 0.000794 -0.001288 -0.000000 0.000000 -0.000000 -1.092230 0.000790 -0.001286 -1.092160 0.000799 -0.001287 -0.000000 -0.000000 -0.000000 -0.000000 0.000000 -0.000000 -1.040573 0.066063 -7.313561 7.350398 -32.067899 -69.668271 0.187487 -19.302671 -0.010432 -20.753535 9.813916 7.680882 -3.585658 6.501875 9.429868 2.607166 6.629806 1.555743 0.000000 0.000001 -0.000003 0.018235 -0.626969 -18.273843 0.140776 0.905693 -26.473730 -0.000000 0.000000 0.000002 -0.395172 -0.197380 -22.733933 -0.317514 -1.177671 -20.974696 0.000000 -0.000001 0.000001 -2.603425 2.237672 -30.763876 -0.558387 -2.799648 -27.779822 0.000001 -0.000000 -0.000002 -3.206972 3.773983 -25.957097 -1.466416 -7.041432 -38.543628 -0.000000 -0.000003 -0.000002 -0.000001 -0.000000 0.000001 -0.000001 -0.000000 0.000001 -0.000002 -0.000000 0.000001 -0.000001 0.000000 0.000000 -0.000001 0.000000 -0.000001 -0.000001 0.000000 0.000000 -0.000002 -0.000000 -0.000000 -1.311105 0.742996 9.274757 12.059031 31.115026 62.473083 0.165969 19.986513 0.012212 -1.892690 -6.125690 -2.865243 -4.933610 -3.839413 -10.210310 2.321144 -6.714519 -2.170935 0.000000 -0.000000 0.000003 -0.707354 -1.817319 16.398821 0.236671 -1.390803 24.642397 -0.000001 0.000001 0.000001 -1.004776 -1.535083 26.677192 -0.334969 0.990845 24.831875 -0.000003 -0.000001 -0.000000 -1.008044 -2.153149 34.767760 -0.909688 3.719356 31.537613 -0.000001 -0.000001 0.000001 -0.351658 -5.096490 35.329492 -3.150348 10.093685 46.957018 0.000002 0.000003 -0.000001 -0.000001 0.000001 -0.000000 -0.000001 -0.000001 0.000000 -0.000001 0.000001 -0.000000 0.000001 0.000000 0.000001 0.000001 0.000000 0.000002 0.000001 0.000000 0.000001 0.000001 0.000000 0.000002 -0.000000 -0.000000 -0.000000 -0.000000 -0.000000 -0.000000 -0.000000 -0.000000 -0.000000 -0.000000 -0.000000 -0.000000 -0.000000 -0.000000 -0.000000 -0.000000 -0.000000 -0.000000 -0.000000 -0.000000 -0.000000 -0.000000 -0.000000 0.000000 0.000000 0.000000 -0.000000 
-0.455121 95.917580 4.296363 6.346173 -6.365963 0.067803 -0.000000 0.000000 0.000000 -11.987357 10.829058 2.145136 7.058861 -0.026083 -0.168843 -1.569546 6.023699 -0.240663 -0.000000 -0.000000 0.000000 -0.000000 -0.000000 0.000000 -11.421829 0.480472 1.435135 2.204937 0.006570 0.059502 2.950922 2.746042 -0.822731 -0.000000 0.000000 -0.000000 -0.000000 0.000000 -0.000000 -0.119421 0.609279 0.502645 -0.244474 1.216435 1.024387 -0.244473 1.216435 1.024388 -1.096093 0.002144 0.000672 -1.096095 0.002146 0.000671 -0.000000 0.000000 -0.000000 -1.096091 0.002150 0.000672 -1.095956 0.002137 0.000673 -0.000000 -0.000000 -0.000000 -0.000000 0.000000 -0.000000 -1.040670 0.066479 -7.313672 7.378136 -32.093754 -69.659931 0.187333 -19.323227 -0.010375 -20.816497 9.683607 7.775321 -3.585676 6.501872 9.429901 2.607177 6.629801 1.555719 0.000001 0.000001 -0.000003 0.018221 -0.626964 -18.273852 0.140787 0.905693 -26.473706 0.000000 -0.000002 -0.000001 -0.395175 -0.197379 -22.733897 -0.317525 -1.177671 -20.974710 0.000001 0.000001 0.000001 -2.603416 2.237671 -30.763862 -0.558401 -2.799654 -27.779846 0.000002 -0.000001 -0.000001 -3.206978 3.773978 -25.957111 -1.466424 -7.041428 -38.543635 -0.000001 -0.000003 -0.000002 0.000001 0.000000 0.000001 0.000001 0.000000 0.000001 -0.000000 0.000000 0.000001 -0.000000 0.000001 -0.000000 0.000000 0.000001 -0.000000 -0.000000 0.000001 -0.000000 -0.000002 0.000001 -0.000000 -1.311756 0.743667 9.273217 12.205437 31.052492 62.406694 0.165298 20.161892 0.012665 -1.933580 -6.209109 -2.880279 -4.933602 -3.839415 -10.210307 2.321135 -6.714513 -2.170910 0.000003 0.000000 0.000001 -0.707362 -1.817317 16.398809 0.236680 -1.390802 24.642406 -0.000001 -0.000001 -0.000001 -1.004795 -1.535077 26.677196 -0.334947 0.990837 24.831853 0.000002 -0.000001 0.000003 -1.008059 -2.153151 34.767770 -0.909687 3.719362 31.537616 0.000001 0.000002 0.000000 -0.351667 -5.096489 35.329512 -3.150333 10.093688 46.957014 0.000001 0.000002 -0.000001 -0.000002 0.000001 0.000000 -0.000002 0.000000 0.000000 -0.000002 0.000001 -0.000001 0.000001 -0.000001 -0.000001 0.000001 -0.000001 -0.000001 0.000001 -0.000001 -0.000001 0.000001 -0.000001 -0.000001 0.000000 0.000000 -0.000000 0.000000 0.000000 -0.000000 0.000000 0.000000 -0.000000 0.000000 0.000000 -0.000000 0.000000 0.000000 -0.000000 0.000000 0.000000 -0.000000 0.000000 0.000000 -0.000000 -0.000000 0.000000 -0.000000 -0.000000 0.000000 0.000000 
-0.430129 95.919380 4.295864 6.300113 -6.278369 0.049381 -0.000000 -0.000000 0.000000 -11.960112 10.840517 2.133471 7.051343 -0.025427 -0.168031 -1.549236 5.935340 -0.226576 0.000000 -0.000000 0.000000 -0.000000 0.000000 0.000001 -11.368787 0.484655 1.426093 2.240063 0.006627 0.061541 2.903839 2.672282 -0.825158 0.000000 -0.000000 0.000000 0.000000 -0.000000 0.000000 -0.123739 0.610682 0.496503 -0.253093 1.219389 1.013287 -0.253094 1.219390 1.013287 -1.097698 0.002524 0.006838 -1.097698 0.002524 0.006837 0.000000 0.000000 -0.000000 -1.097701 0.002526 0.006837 -1.097705 0.002524 0.006837 -0.000000 0.000000 -0.000000 0.000000 0.000000 -0.000000 -1.040671 0.066359 -7.314523 7.508862 -32.096445 -69.558066 0.187069 -19.487375 -0.010762 -20.806517 9.663593 7.823113 -3.585658 6.501886 9.429873 2.607168 6.629787 1.555728 0.000001 -0.000000 -0.000003 0.018238 -0.626962 -18.273830 0.140777 0.905688 -26.473736 -0.000001 -0.000001 0.000001 -0.395161 -0.197377 -22.733916 -0.317520 -1.177662 -20.974659 -0.000000 0.000000 0.000003 -2.603413 2.237678 -30.763858 -0.558394 -2.799648 -27.779850 -0.000000 -0.000002 -0.000003 -3.206962 3.773980 -25.957087 -1.466420 -7.041429 -38.543632 -0.000001 -0.000005 0.000000 -0.000000 0.000001 -0.000000 -0.000000 0.000001 -0.000000 -0.000001 0.000001 -0.000000 -0.000002 -0.000001 -0.000001 -0.000002 -0.000001 -0.000001 -0.000002 -0.000001 -0.000001 -0.000004 0.000000 -0.000001 -1.312630 0.743986 9.269993 12.274446 31.008304 62.405601 0.165852 20.187696 0.012757 -1.976593 -6.215585 -2.866707 -4.933593 -3.839424 -10.210315 2.321123 -6.714511 -2.170904 -0.000002 -0.000003 -0.000001 -0.707355 -1.817314 16.398818 0.236672 -1.390811 24.642404 -0.000000 0.000001 0.000002 -1.004773 -1.535078 26.677199 -0.334958 0.990826 24.831844 -0.000002 0.000001 0.000001 -1.008054 -2.153161 34.767760 -0.909686 3.719368 31.537623 -0.000002 0.000002 0.000001 -0.351661 -5.096491 35.329488 -3.150343 10.093695 46.957021 0.000000 -0.000000 -0.000002 -0.000001 0.000000 0.000001 -0.000001 -0.000000 0.000001 -0.000001 0.000000 0.000001 -0.000002 0.000000 -0.000000 -0.000002 0.000000 -0.000000 -0.000002 0.000000 -0.000000 -0.000002 -0.000000 -0.000000 0.000000 0.000000 0.000000 0.000000 0.000000 0.000000 0.000000 0.000000 0.000000 0.000000 0.000000 0.000000 0.000000 0.000000 0.000000 0.000000 0.000000 0.000000 0.000000 0.000000 0.000000 0.000000 -0.000000 -0.000000 -0.000000 -0.000000 0.000000 
